<?xml version="1.0" encoding="utf-8"?>
<svg version="1.1" id="Layer_1" xmlns="http://www.w3.org/2000/svg" xmlns:xlink="http://www.w3.org/1999/xlink" x="0px" y="0px"
	 viewBox="0 0 564 120" style="enable-background:new 0 0 564 120;" xml:space="preserve">
<style type="text/css">
	.st0{fill:#FF9332;}
	.st1{fill:#EA5237;}
	.st2{fill:#FFB347;}
	.st3{fill:#FFFFFF;}
</style>
<g>
	<g>
		<path class="st0" d="M118.6,73.1c0.9-4.2,1.4-8.6,1.4-13.1c0-33.1-26.9-60-60-60c-4.5,0-8.9,0.5-13.1,1.4L62,58L118.6,73.1z"/>
		<path class="st1" d="M100.3,73.4c-0.9,2.7-2.1,5.3-3.5,7.9c-11.7,20.3-37.7,27.3-58.1,15.6c-2.5-1.5-4.9-3.2-7-5l-12.4,12.4
			c3.2,2.9,6.7,5.5,10.6,7.8c28.7,16.6,65.4,6.7,82-22c2.3-3.9,4-7.9,5.3-12.1L100.3,73.4z"/>
		<path class="st2" d="M23.2,81.2c-11.7-20.3-4.8-46.3,15.6-58.1c2.5-1.5,5.2-2.6,7.9-3.5L42.1,2.7C38,4,33.9,5.8,30,8
			C1.3,24.6-8.5,61.3,8,90c2.3,3.9,4.9,7.4,7.8,10.6l12.4-12.4C26.4,86.1,24.7,83.8,23.2,81.2z"/>
	</g>
	<g>
		<path class="st3" d="M163.9,66.1c0,13.2,6.1,24.4,20.6,24.4c11.3,0,18.8-7.2,18.9-16.1h3.8v0.1c0,10.5-8.9,19.5-22.7,19.5
			C167.3,94,160,81.5,160,65.7v-11c0-15.7,7.6-28.5,24.3-28.5c14.4,0,22.5,10.3,22.5,19.8v0.1H203c-0.1-7.7-6.8-16.4-18.6-16.4
			c-14.1,0-20.4,11.2-20.4,24.5V66.1z M261,65.1v7c0,14-8.5,21.9-20.2,21.9c-11.7,0-20.1-8-20.1-21.9v-7C220.7,51,229,43,240.8,43
			C252.4,43,261,51.2,261,65.1z M224.6,65.4v6.2c0,12.3,6.8,18.8,16.3,18.8c9.3,0,16.3-6.4,16.3-18.8v-6.2c0-12.3-6.9-19-16.3-19
			C231.4,46.5,224.6,53,224.6,65.4z M279.1,28.2c1.9,0,3.4,1.5,3.4,3.4c0,1.9-1.5,3.4-3.4,3.4c-1.9,0-3.4-1.5-3.4-3.4
			C275.8,29.8,277.2,28.2,279.1,28.2z M277.2,44.6h3.8V94h-3.8V44.6z M299.6,44.6h3.8v9.2h0.2c1.6-4.7,6.7-10,15.9-10
			c9.9,0,17.2,6.3,17.2,17.9V94h-3.9V62.2c0-8.6-5.1-14.8-13.9-14.8c-10.3,0-15.5,8.1-15.5,16.5V94h-3.8V44.6z"/>
		<path class="st3" d="M356.6,75.4c0.6,6.4,6,12.2,16.7,12.2c9.4,0,15.6-4.7,15.6-12.2c0-5.9-3.6-9.1-11.3-11.1l-11.3-3
			c-7.7-2.1-15-6.9-15-16.8c0-11.9,10.6-18.5,22.1-18.5c10.9,0,21.8,5.8,22,18.1h-7.2c-0.6-6.4-5.4-11.6-15-11.6
			c-8.5,0-14.7,4.1-14.7,11.5c0,5.1,3.1,8.6,9.6,10.3l11,3c10.3,2.8,17,7.3,17,17.5c0,12.6-10.6,19.1-23.8,19.1
			c-16.9,0-22.8-10.4-23-18.6H356.6z M413.1,31.1h7v12.5h10.2v6h-10.2v30.8c0,6.2,2,7.7,8.3,7.7c0.9,0,1.6,0,2.3-0.1v5.8
			c-0.7,0.1-2.4,0.3-4.1,0.3c-11.4,0-13.6-4.5-13.6-14.1V31.1z M460.5,94c-9.7,0-16.3-6-16.3-15.1c0-8.6,6-14.2,17.4-14.2h13.6v-5.4
			c0-7-4.1-10.8-11.2-10.8c-6.9,0-10.6,3.4-11.2,8.7h-6.6c0.6-8.7,6.5-14.7,18.1-14.7c10.4,0,17.9,5.8,17.9,16v34.7h-6.8v-6.5h-0.2
			C472.8,90.7,468.1,94,460.5,94z M475.1,76.5v-6.2h-13.3c-7.3,0-10.4,3.5-10.4,8.3c0,6.2,5.1,9.2,10.7,9.2
			C469.6,87.9,475.1,83.3,475.1,76.5z M497.4,31.1h7v12.5h10.2v6h-10.2v30.8c0,6.2,2,7.7,8.3,7.7c0.9,0,1.6,0,2.3-0.1v5.8
			c-0.7,0.1-2.4,0.3-4.1,0.3c-11.4,0-13.6-4.5-13.6-14.1V31.1z M545.4,42.5c11.8,0,17.4,6.9,17.4,14.7h-6.6
			c-0.2-3.9-2.8-8.7-11.1-8.7c-6.2,0-10.9,2.7-10.9,8.1c0,5.8,6.3,7.2,12.4,8.3c9.3,1.7,17.4,4.1,17.4,13.9
			c0,9.9-8.1,15.3-19.4,15.3c-10.9,0-18.3-5.5-18.3-14.1h6.9c0.7,4.6,4.7,8.1,12,8.1c8,0,11.9-3.7,11.9-8.4c0-5.9-5.4-7.1-12.8-8.6
			c-9.4-2.1-17-4.8-17-13.7C527.3,47,535.9,42.5,545.4,42.5z"/>
	</g>
</g>
</svg>
