<svg xmlns="http://www.w3.org/2000/svg" xmlns:xlink="http://www.w3.org/1999/xlink" width="196" height="42" viewBox="0 0 196 42">
    <defs>
        <path id="2cgncnw3da" d="M0 41.789L195.904 41.789 195.904 0 0 0z"/>
    </defs>
    <g fill="none" fill-rule="evenodd">
        <g>
            <g>
                <g transform="translate(-822 -268) translate(780 205) translate(42 63)">
                    <path fill="#555" d="M56.776 23.02c0 4.584 2.122 8.487 7.162 8.487 3.946 0 6.55-2.491 6.566-5.614h1.326v.05c0 3.67-3.1 6.793-7.892 6.793-5.985 0-8.522-4.368-8.522-9.865v-3.837c0-5.48 2.653-9.915 8.456-9.915 5.024 0 7.81 3.57 7.81 6.892v.05h-1.327c-.033-2.69-2.355-5.697-6.483-5.697-4.891 0-7.096 3.887-7.096 8.52v4.136zM77.863 22.788v2.159c0 4.285 2.371 6.56 5.67 6.56 3.25 0 5.654-2.226 5.654-6.56v-2.16c0-4.284-2.404-6.61-5.67-6.61s-5.654 2.292-5.654 6.61m12.667-.132v2.441c0 4.866-2.951 7.64-7.013 7.64-4.062 0-6.98-2.774-6.98-7.64v-2.441c0-4.9 2.885-7.69 6.98-7.69 4.029 0 7.013 2.857 7.013 7.69"/>
                    <mask id="qx24988hab" fill="#fff">
                        <use xlink:href="#2cgncnw3da"/>
                    </mask>
                    <path fill="#555" d="M96.182 32.736h1.326v-17.19h-1.326v17.19zm.663-22.903c.663 0 1.194.532 1.194 1.196 0 .664-.53 1.18-1.194 1.18-.663 0-1.177-.516-1.177-1.18 0-.664.514-1.196 1.177-1.196zM103.957 15.546h1.326v3.19h.067c.563-1.629 2.32-3.472 5.52-3.472 3.449 0 5.97 2.209 5.97 6.228v11.244h-1.344V21.658c0-2.99-1.757-5.148-4.824-5.148-3.598 0-5.389 2.823-5.389 5.746v10.48h-1.326v-17.19z" mask="url(#qx24988hab)"/>
                    <path fill="#303030" d="M123.767 26.242c.216 2.242 2.09 4.236 5.82 4.236 3.283 0 5.438-1.628 5.438-4.236 0-2.042-1.26-3.155-3.93-3.853l-3.912-1.046c-2.686-.714-5.223-2.408-5.223-5.863 0-4.152 3.68-6.427 7.676-6.427 3.797 0 7.578 2.01 7.66 6.31h-2.486c-.2-2.225-1.874-4.052-5.223-4.052-2.968 0-5.107 1.445-5.107 4.003 0 1.777 1.078 3.006 3.35 3.604l3.83 1.046c3.564.964 5.902 2.541 5.902 6.112 0 4.385-3.697 6.66-8.29 6.66-5.87 0-7.925-3.637-8.008-6.494h2.503zM143.438 10.813h2.437v4.368h3.548v2.076h-3.548V27.97c0 2.142.696 2.674 2.902 2.674.298 0 .547 0 .795-.034v2.01c-.248.05-.829.116-1.41.116-3.962 0-4.724-1.56-4.724-4.916V10.813zM165.005 26.657v-2.142h-4.642c-2.537 0-3.614 1.212-3.614 2.907 0 2.158 1.774 3.205 3.73 3.205 2.587 0 4.526-1.628 4.526-3.97m-5.106 6.079c-3.366 0-5.67-2.076-5.67-5.265 0-3.006 2.089-4.932 6.051-4.95h4.725v-1.876c0-2.441-1.425-3.754-3.896-3.754-2.387 0-3.697 1.18-3.896 3.023h-2.305c.2-3.023 2.272-5.132 6.3-5.132 3.615 0 6.235 2.01 6.235 5.58v12.092h-2.371v-2.26h-.067c-.829 1.396-2.453 2.542-5.106 2.542M172.74 10.813h2.436v4.368h3.549v2.076h-3.549V27.97c0 2.142.697 2.674 2.902 2.674.298 0 .547 0 .796-.034v2.01c-.249.05-.83.116-1.41.116-3.962 0-4.725-1.56-4.725-4.916V10.813zM189.42 14.782c4.096 0 6.053 2.409 6.053 5.132h-2.305c-.083-1.362-.962-3.04-3.847-3.04-2.171 0-3.78.948-3.78 2.808 0 2.01 2.205 2.491 4.311 2.906 3.233.598 6.052 1.412 6.052 4.833 0 3.438-2.802 5.315-6.748 5.315-3.797 0-6.35-1.91-6.35-4.9h2.387c.232 1.595 1.625 2.807 4.162 2.807 2.769 0 4.128-1.295 4.128-2.94 0-2.059-1.89-2.458-4.443-2.989-3.267-.714-5.903-1.66-5.903-4.766 0-3.571 2.985-5.166 6.284-5.166" mask="url(#qx24988hab)"/>
                    <path fill="#FFB347" d="M9.744 30.739L5.46 35.031C1.938 31.19 0 26.172 0 20.888c0-5.61 2.156-10.859 6.071-14.78 2.359-2.363 5.283-4.143 8.464-5.15l1.323 5.954c-2.064.734-3.964 1.936-5.517 3.492-2.707 2.711-4.243 6.32-4.326 10.165-.08 3.764 1.244 7.373 3.73 10.17" mask="url(#qx24988hab)"/>
                    <path fill="#FF9332" d="M20.813 20.882L16.283.487c3.375-.75 6.93-.632 10.29.344 3.41.99 6.54 2.843 9.049 5.357 2.569 2.574 4.422 5.786 5.36 9.29.867 3.244.939 6.687.21 9.962l-20.379-4.558z" mask="url(#qx24988hab)"/>
                    <path fill="#EA5237" d="M31.238 38.954c-4.85 2.805-10.465 3.559-15.812 2.125-3.237-.87-6.25-2.528-8.718-4.799l4.285-4.291c2.705 2.405 6.19 3.727 9.82 3.725 3.95-.001 7.666-1.543 10.46-4.342 1.55-1.553 2.75-3.454 3.482-5.518l5.967 1.334c-1.562 4.956-4.927 9.13-9.484 11.766" mask="url(#qx24988hab)"/>
                </g>
            </g>
        </g>
    </g>
</svg>
